<?xml version="1.0" encoding="UTF-8" standalone="no"?>
<!-- Created with Inkscape (http://www.inkscape.org/) -->

<svg
   width="154.49658mm"
   height="152.75974mm"
   viewBox="0 0 154.49658 152.75974"
   version="1.1"
   id="svg5"
   xml:space="preserve"
   xmlns:inkscape="http://www.inkscape.org/namespaces/inkscape"
   xmlns:sodipodi="http://sodipodi.sourceforge.net/DTD/sodipodi-0.dtd"
   xmlns="http://www.w3.org/2000/svg"
   xmlns:svg="http://www.w3.org/2000/svg"><sodipodi:namedview
     id="namedview7"
     pagecolor="#ffffff"
     bordercolor="#000000"
     borderopacity="0.25"
     inkscape:showpageshadow="2"
     inkscape:pageopacity="0.0"
     inkscape:pagecheckerboard="0"
     inkscape:deskcolor="#d1d1d1"
     inkscape:document-units="mm"
     showgrid="false" /><defs
     id="defs2" /><g
     inkscape:groupmode="layer"
     id="layer2"
     inkscape:label="background"
     transform="translate(-29.046448,-33.214866)"><rect
       style="opacity:0.936652;fill:#4a3057;fill-opacity:1;stroke:#000000;stroke-width:0.176734"
       id="rect7303"
       width="154.31984"
       height="152.58299"
       x="29.134815"
       y="33.303234" /><text
       xml:space="preserve"
       style="font-style:normal;font-variant:normal;font-weight:normal;font-stretch:normal;font-size:52.9167px;font-family:'Baskerville Old Face';-inkscape-font-specification:'Baskerville Old Face';text-align:center;text-anchor:middle;opacity:0.936652;fill:#fee994;fill-opacity:1;stroke:#000000;stroke-width:0.264999"
       x="104.90525"
       y="175.42105"
       id="text8335"><tspan
         sodipodi:role="line"
         id="tspan8333"
         style="font-size:52.9167px;stroke-width:0.265"
         x="104.90525"
         y="175.42105">C</tspan></text></g><g
     inkscape:groupmode="layer"
     id="layer1"
     inkscape:label="clipart"
     transform="translate(-29.046448,-33.214866)"><path
       style="fill:#000000;stroke-width:0.189156"
       d="m 42.734144,183.97971 c -0.202334,-0.57207 -11.420787,-38.38199 -11.420787,-38.49186 0,-0.0673 1.311824,-0.12244 2.915163,-0.12244 2.128357,0 2.954591,0.0639 3.061246,0.2369 0.08035,0.13029 1.431999,4.2452 3.003675,9.14424 l 2.857592,8.90735 15.509267,0.0485 15.509264,0.0485 v -1.30709 -1.3071 l -2.376189,-2.7213 C 56.389055,140.77404 47.90693,125.71246 44.921878,110.7001 c -1.10118,-5.53802 -1.242523,-7.13523 -1.242523,-14.040825 0,-6.786204 0.150688,-8.554762 1.154556,-13.550541 1.785807,-8.887113 5.701042,-17.311026 11.419289,-24.569417 1.984773,-2.519349 7.219744,-7.756868 9.892625,-9.897438 9.820866,-7.865018 21.192867,-12.302673 34.320965,-13.392947 3.47923,-0.288946 12.39012,-0.135601 15.33183,0.26384 6.46991,0.878523 12.23268,2.403643 17.27463,4.571741 14.03762,6.036338 26.07978,17.97767 31.91221,31.644991 4.91631,11.520543 6.16179,25.364154 3.48034,38.684486 -3.0727,15.26393 -10.92428,29.31444 -26.64577,47.68295 l -2.70537,3.16086 v 1.24543 1.24543 h 15.47418 15.47418 l 2.98956,-9.14425 2.98955,-9.14424 2.96437,-0.0522 c 2.21212,-0.0389 2.96437,0.006 2.96437,0.17572 0,0.18963 -3.56607,12.15746 -10.25753,34.42456 -0.66701,2.21962 -1.25177,4.07485 -1.29945,4.12271 -0.0477,0.0479 -11.34489,0.0654 -25.10489,0.039 l -25.0182,-0.0481 0.84386,-1.51615 c 1.38805,-2.49391 5.35401,-10.4107 6.74075,-13.45578 8.27932,-18.18023 13.5837,-36.74537 15.58333,-54.54105 0.61491,-5.47239 0.76007,-7.76221 0.87955,-13.87496 0.28578,-14.620712 -1.42208,-26.550312 -5.12934,-35.828871 -5.27667,-13.206522 -14.25124,-20.442916 -27.375,-22.073081 -2.18257,-0.271106 -7.9839,-0.265611 -10.29306,0.0098 -18.166922,2.166356 -28.766765,15.49241 -31.709014,39.864367 -0.666905,5.524265 -0.820596,8.463654 -0.813801,15.564103 0.0072,7.537542 0.251924,11.628142 1.097609,18.347702 2.743532,21.79927 10.054133,43.61823 22.125575,66.0352 l 0.84195,1.56353 H 67.950572 c -19.935562,0 -25.149965,-0.049 -25.216428,-0.2369 z"
       id="path8115" /><text
       xml:space="preserve"
       style="font-style:normal;font-variant:normal;font-weight:normal;font-stretch:normal;font-size:52.9167px;font-family:Algerian;-inkscape-font-specification:Algerian;text-align:center;text-anchor:middle;opacity:0.936652;fill:#4a3057;fill-opacity:1;stroke:#000000;stroke-width:0.264999"
       x="106.64209"
       y="82.673683"
       id="text8171"><tspan
         sodipodi:role="line"
         style="font-style:normal;font-variant:normal;font-weight:normal;font-stretch:normal;font-size:52.9167px;font-family:'Baskerville Old Face';-inkscape-font-specification:'Baskerville Old Face';fill:#fee994;fill-opacity:1;stroke-width:0.265"
         x="106.64209"
         y="82.673683"
         id="tspan8325">O</tspan></text><text
       xml:space="preserve"
       style="font-style:normal;font-variant:normal;font-weight:normal;font-stretch:normal;font-size:52.9167px;font-family:'Baskerville Old Face';-inkscape-font-specification:'Baskerville Old Face';text-align:center;text-anchor:middle;opacity:0.936652;fill:#fee994;fill-opacity:1;stroke:#000000;stroke-width:0.264999"
       x="106.98948"
       y="127.83157"
       id="text8331"><tspan
         sodipodi:role="line"
         id="tspan8329"
         style="font-size:52.9167px;stroke-width:0.265"
         x="106.98948"
         y="127.83157">B</tspan></text></g></svg>
