<svg width="181" height="181" xmlns="http://www.w3.org/2000/svg" xmlns:xlink="http://www.w3.org/1999/xlink" xml:space="preserve" overflow="hidden"><defs><clipPath id="clip0"><rect x="109" y="111" width="181" height="181"/></clipPath></defs><g clip-path="url(#clip0)" transform="translate(-109 -111)"><path d="M170.842 231.667 167.071 231.667C163.3 233.929 159.152 235.438 154.816 236.192L154.816 237.323C154.816 240.528 157.267 242.979 160.472 242.979L170.842 242.979C174.047 242.979 176.498 240.528 176.498 237.323 176.498 234.118 174.047 231.667 170.842 231.667Z" fill="#FFFFFF"/><path d="M214.772 192.261C209.304 193.958 203.459 192.639 199.5 188.491L184.982 175.293C174.047 165.489 157.455 164.923 145.954 174.161 141.241 168.505 141.995 160.209 147.651 155.496 150.102 153.422 153.119 152.479 156.135 152.479 159.341 152.479 161.792 150.028 161.792 146.823 161.792 143.618 159.341 141.167 156.135 141.167 142.56 141.167 131.625 152.102 131.625 165.677 131.625 172.276 134.265 178.686 138.978 183.211 136.527 189.056 136.904 195.655 139.921 201.123L142.372 205.836C144.257 209.23 145.577 213.001 146.143 216.96L146.331 218.657C146.331 219.223 146.52 219.6 146.331 220.166L139.544 226.953C138.413 228.084 137.847 229.404 137.847 230.912L137.847 248.635C137.847 251.841 140.298 254.292 143.503 254.292L153.873 254.292C157.078 254.292 159.529 251.841 159.529 248.635 159.529 245.43 157.078 242.979 153.873 242.979L149.159 242.979 149.159 232.986C157.644 232.986 165.751 229.404 171.596 223.182L176.309 229.404C181.211 236.003 188.565 240.528 196.672 241.471 199.689 241.659 202.14 243.356 203.459 246.184L204.779 249.201C205.156 251.652 206.853 253.537 209.116 254.103L243.053 261.645C246.07 262.21 249.086 260.325 249.841 257.308 250.406 254.292 248.521 251.275 245.504 250.709L225.896 246.184 227.593 241.282 253.046 244.865C256.062 245.242 258.891 242.979 259.268 239.962 259.645 236.946 257.571 234.118 254.554 233.741L231.175 230.535 231.175 230.158 231.175 229.97 240.225 219.411 250.218 223.748C257.382 226.953 265.867 223.748 269.072 216.583L269.26 216.018 262.85 208.288C264.17 199.803 259.833 191.507 251.915 188.114L244.939 185.851C243.242 185.285 241.733 185.097 240.036 185.097L239.094 185.097C238.905 185.097 238.528 185.097 238.34 185.097L234.192 193.204C233.626 194.147 233.438 195.278 233.626 196.409 233.815 198.106 234.946 199.803 236.643 200.557 237.02 200.746 237.397 200.934 237.774 200.934 239.094 201.311 240.602 200.934 241.733 200.369 242.676 199.803 243.43 198.86 243.996 197.918 244.373 196.975 245.504 196.598 246.447 196.975 247.39 197.352 247.767 198.483 247.39 199.426 247.39 199.426 247.39 199.426 247.39 199.426 246.635 200.934 245.316 202.443 243.807 203.385 242.299 204.328 240.791 204.705 239.094 204.894 238.34 204.894 237.774 204.894 237.02 204.705 236.266 204.517 235.511 204.328 234.946 203.951 232.306 202.443 230.609 199.992 230.044 196.975 229.855 195.09 230.232 193.204 230.986 191.507L233.815 186.04C233.438 186.228 233.06 186.228 232.495 186.417L214.772 192.261ZM230.986 221.674 215.526 197.729C215.526 197.729 215.715 197.729 215.715 197.729 216.092 197.541 216.657 197.352 217.034 197.164L221.182 195.844 234.946 217.149 230.986 221.674Z" fill="#FFFFFF"/></g></svg>