<?xml version="1.0" encoding="UTF-8" standalone="no"?>
<!-- Created with Inkscape (http://www.inkscape.org/) -->

<svg
   width="150.20573mm"
   height="155.28683mm"
   viewBox="0 0 150.20573 155.28683"
   version="1.1"
   id="svg5"
   inkscape:version="1.2.1 (9c6d41e410, 2022-07-14)"
   sodipodi:docname="dishdiarieslogo.svg"
   inkscape:export-filename="final\images\dishdiarieslogo.svg"
   inkscape:export-xdpi="96"
   inkscape:export-ydpi="96"
   xmlns:inkscape="http://www.inkscape.org/namespaces/inkscape"
   xmlns:sodipodi="http://sodipodi.sourceforge.net/DTD/sodipodi-0.dtd"
   xmlns="http://www.w3.org/2000/svg"
   xmlns:svg="http://www.w3.org/2000/svg">
  <sodipodi:namedview
     id="namedview7"
     pagecolor="#ffffff"
     bordercolor="#000000"
     borderopacity="0.25"
     inkscape:showpageshadow="2"
     inkscape:pageopacity="0.0"
     inkscape:pagecheckerboard="0"
     inkscape:deskcolor="#d1d1d1"
     inkscape:document-units="mm"
     showgrid="false"
     inkscape:zoom="0.76167929"
     inkscape:cx="309.18525"
     inkscape:cy="561.91629"
     inkscape:window-width="1920"
     inkscape:window-height="1009"
     inkscape:window-x="-8"
     inkscape:window-y="-8"
     inkscape:window-maximized="1"
     inkscape:current-layer="layer3" />
  <defs
     id="defs2">
    <inkscape:path-effect
       effect="bend_path"
       id="path-effect8236"
       is_visible="true"
       lpeversion="1"
       bendpath="m 63.232574,190.42071 c 29.185285,73.07834 100.342486,75.08022 129.920246,-0.69474"
       prop_scale="1"
       scale_y_rel="false"
       vertical="false"
       hide_knot="false"
       bendpath-nodetypes="cc" />
    <inkscape:path-effect
       effect="bend_path"
       id="path-effect8233"
       is_visible="true"
       lpeversion="1"
       bendpath="m 71.917294,48.829182 c 27.779236,-27.243481 55.013176,-21.768704 81.975566,0"
       prop_scale="1"
       scale_y_rel="false"
       vertical="false"
       hide_knot="false"
       bendpath-nodetypes="cc" />
    <linearGradient
       id="linearGradient952"
       inkscape:swatch="solid">
      <stop
         style="stop-color:#dfe0de;stop-opacity:1;"
         offset="0"
         id="stop950" />
    </linearGradient>
  </defs>
  <g
     inkscape:label="dish"
     inkscape:groupmode="layer"
     id="layer1"
     transform="translate(-21.274304,-53.854689)">
    <path
       style="opacity:1;fill:#ffffff;fill-opacity:1;stroke:#000000;stroke-width:0.265;stroke-dasharray:none;stroke-opacity:1"
       id="path790"
       sodipodi:type="arc"
       sodipodi:cx="97.78421"
       sodipodi:cy="132.17369"
       sodipodi:rx="45"
       sodipodi:ry="45"
       sodipodi:start="6.2033291"
       sodipodi:end="6.1927051"
       sodipodi:arc-type="arc"
       d="M 142.6408,128.58398 A 45,45 0 0 1 101.49305,177.02059 45,45 0 0 1 52.947318,136.00163 45,45 0 0 1 93.837199,87.347124 45,45 0 0 1 142.60014,128.10763"
       sodipodi:open="true" />
    <path
       style="fill:#ffffff;fill-opacity:1;stroke:#000000;stroke-width:0.264583;stroke-opacity:1"
       id="path896"
       sodipodi:type="arc"
       sodipodi:cx="97.610527"
       sodipodi:cy="132"
       sodipodi:rx="30"
       sodipodi:ry="30"
       sodipodi:start="6.2033291"
       sodipodi:end="6.1927051"
       sodipodi:arc-type="arc"
       d="m 127.51492,129.60686 a 30,30 0 0 1 -27.43183,32.29107 30,30 0 0 1 -32.363824,-27.34597 30,30 0 0 1 27.25992,-32.43634 30,30 0 0 1 32.508624,27.17368"
       sodipodi:open="true" />
  </g>
  <g
     inkscape:groupmode="layer"
     id="layer4"
     inkscape:label="pie"
     transform="translate(-21.274304,-53.854689)">
    <path
       style="opacity:1;fill:#f3c792;fill-opacity:1;stroke:#000000;stroke-width:0.264999;stroke-dasharray:none;stroke-opacity:1"
       d="M 115.32631,111.15789 H 79.199998 l 17.715791,48.97895 z"
       id="path4727" />
    <path
       style="opacity:1;fill:#e79e5d;fill-opacity:1;stroke:#000000;stroke-width:0.264999;stroke-dasharray:none;stroke-opacity:1"
       d="m 81.284208,116.36842 h 32.305262 l 1.38948,-5.21053 -36.126321,-0.34736 z"
       id="path4729" />
    <path
       style="opacity:1;fill:#da9a69;fill-opacity:1;stroke:#000000;stroke-width:0.264999;stroke-dasharray:none;stroke-opacity:1"
       d="M 106.29474,116.71579 93.789472,149.36842 90.31579,139.29474 98.65263,116.71579 Z"
       id="path5988" />
    <path
       style="opacity:1;fill:#da9a69;fill-opacity:1;stroke:#000000;stroke-width:0.264999;stroke-dasharray:none;stroke-opacity:1"
       d="m 91.010525,117.06316 -5.210527,12.15789 -4.168421,-11.81053 -0.694735,-1.38947 z"
       id="path6478" />
    <path
       style="opacity:1;fill:#da9a69;fill-opacity:1;stroke:#000000;stroke-width:0.264999;stroke-dasharray:none;stroke-opacity:1"
       d="m 100.38947,149.71579 -3.126312,-7.98948 2.431579,-7.29473 3.821053,6.94737 z"
       id="path6486" />
    <path
       style="opacity:1;fill:#da9a69;fill-opacity:1;stroke:#000000;stroke-width:0.264999;stroke-dasharray:none;stroke-opacity:1"
       d="M 88.926314,123.66316 92.052631,132 l 3.126314,-7.64211 -3.821052,-6.94737 z"
       id="path6488" />
    <path
       style="opacity:1;fill:#da9a69;fill-opacity:1;stroke:#000000;stroke-width:0.264999;stroke-dasharray:none;stroke-opacity:1"
       d="M 103.51579,126.09473 107.33684,132 110.46316,122.96842 105.6,118.8 Z"
       id="path6490" />
  </g>
  <g
     inkscape:groupmode="layer"
     id="layer2"
     inkscape:label="cherries"
     style="font-size:35.2777px;font-family:'Showcard Gothic';-inkscape-font-specification:'Showcard Gothic';opacity:1;fill:#b03131;fill-opacity:1;stroke:#000000;stroke-width:0.264999"
     transform="translate(-21.274304,-53.854689)">
    <path
       style="opacity:1;fill:#b03131;fill-opacity:1;stroke:#000000;stroke-width:0.264999;stroke-dasharray:none;stroke-opacity:1"
       id="path5646"
       sodipodi:type="arc"
       sodipodi:cx="85.626312"
       sodipodi:cy="127.13684"
       sodipodi:rx="3.6473684"
       sodipodi:ry="3.4736841"
       sodipodi:start="6.2033291"
       sodipodi:end="6.1927051"
       sodipodi:open="true"
       sodipodi:arc-type="arc"
       d="m 89.262057,126.85974 a 3.6473684,3.4736841 0 0 1 -3.335134,3.73897 3.6473684,3.4736841 0 0 1 -3.934759,-3.16638 3.6473684,3.4736841 0 0 1 3.314233,-3.75579 3.6473684,3.4736841 0 0 1 3.952364,3.14643" />
    <path
       style="fill:#b03131;fill-opacity:1;stroke:#000000;stroke-width:0.264999;stroke-dasharray:none;stroke-opacity:1"
       id="path5646-3"
       sodipodi:type="arc"
       sodipodi:cx="89.273697"
       sodipodi:cy="141.03159"
       sodipodi:rx="3.6473684"
       sodipodi:ry="3.4736841"
       sodipodi:start="6.2033291"
       sodipodi:end="6.1927051"
       sodipodi:open="true"
       sodipodi:arc-type="arc"
       d="m 92.909442,140.75449 a 3.6473684,3.4736841 0 0 1 -3.335134,3.73896 3.6473684,3.4736841 0 0 1 -3.934759,-3.16637 3.6473684,3.4736841 0 0 1 3.314232,-3.75579 3.6473684,3.4736841 0 0 1 3.952365,3.14642" />
    <path
       style="fill:#b03131;fill-opacity:1;stroke:#000000;stroke-width:0.264999;stroke-dasharray:none;stroke-opacity:1"
       id="path5646-4"
       sodipodi:type="arc"
       sodipodi:cx="111.50527"
       sodipodi:cy="120.53685"
       sodipodi:rx="3.6473684"
       sodipodi:ry="3.4736841"
       sodipodi:start="6.2033291"
       sodipodi:end="6.1927051"
       sodipodi:open="true"
       sodipodi:arc-type="arc"
       d="m 115.14102,120.25975 a 3.6473684,3.4736841 0 0 1 -3.33514,3.73897 3.6473684,3.4736841 0 0 1 -3.93476,-3.16638 3.6473684,3.4736841 0 0 1 3.31424,-3.75579 3.6473684,3.4736841 0 0 1 3.95236,3.14643" />
    <path
       style="fill:#b03131;fill-opacity:1;stroke:#000000;stroke-width:0.264999;stroke-dasharray:none;stroke-opacity:1"
       id="path5646-77"
       sodipodi:type="arc"
       sodipodi:cx="106.98948"
       sodipodi:cy="143.1158"
       sodipodi:rx="3.6473684"
       sodipodi:ry="3.4736841"
       sodipodi:start="6.2033291"
       sodipodi:end="6.1927051"
       sodipodi:open="true"
       sodipodi:arc-type="arc"
       d="m 110.62522,142.8387 a 3.6473684,3.4736841 0 0 1 -3.33513,3.73896 3.6473684,3.4736841 0 0 1 -3.93476,-3.16637 3.6473684,3.4736841 0 0 1 3.31423,-3.75579 3.6473684,3.4736841 0 0 1 3.95237,3.14643" />
    <path
       style="fill:#b03131;fill-opacity:1;stroke:#000000;stroke-width:0.264999;stroke-dasharray:none;stroke-opacity:1"
       id="path5646-6"
       sodipodi:type="arc"
       sodipodi:cx="110.11579"
       sodipodi:cy="126.44212"
       sodipodi:rx="3.6473684"
       sodipodi:ry="3.4736841"
       sodipodi:start="6.2033291"
       sodipodi:end="6.1927051"
       sodipodi:open="true"
       sodipodi:arc-type="arc"
       d="m 113.75154,126.16502 a 3.6473684,3.4736841 0 0 1 -3.33514,3.73897 3.6473684,3.4736841 0 0 1 -3.93476,-3.16638 3.6473684,3.4736841 0 0 1 3.31424,-3.75578 3.6473684,3.4736841 0 0 1 3.95236,3.14642" />
    <path
       style="fill:#b03131;fill-opacity:1;stroke:#000000;stroke-width:0.264999;stroke-dasharray:none;stroke-opacity:1"
       id="path5646-15"
       sodipodi:type="arc"
       sodipodi:cx="107.68422"
       sodipodi:cy="128.17896"
       sodipodi:rx="3.6473684"
       sodipodi:ry="3.4736841"
       sodipodi:start="6.2033291"
       sodipodi:end="6.1927051"
       sodipodi:open="true"
       sodipodi:arc-type="arc"
       d="m 111.31996,127.90185 a 3.6473684,3.4736841 0 0 1 -3.33513,3.73897 3.6473684,3.4736841 0 0 1 -3.93476,-3.16638 3.6473684,3.4736841 0 0 1 3.31423,-3.75578 3.6473684,3.4736841 0 0 1 3.95237,3.14642" />
    <path
       style="fill:#b03131;fill-opacity:1;stroke:#000000;stroke-width:0.264999;stroke-dasharray:none;stroke-opacity:1"
       id="path5646-778"
       sodipodi:type="arc"
       sodipodi:cx="105.25264"
       sodipodi:cy="133.04211"
       sodipodi:rx="3.6473684"
       sodipodi:ry="3.4736841"
       sodipodi:start="6.2033291"
       sodipodi:end="6.1927051"
       sodipodi:open="true"
       sodipodi:arc-type="arc"
       d="m 108.88838,132.76501 a 3.6473684,3.4736841 0 0 1 -3.33513,3.73897 3.6473684,3.4736841 0 0 1 -3.93476,-3.16638 3.6473684,3.4736841 0 0 1 3.31423,-3.75578 3.6473684,3.4736841 0 0 1 3.95237,3.14642" />
    <path
       style="fill:#b03131;fill-opacity:1;stroke:#000000;stroke-width:0.264999;stroke-dasharray:none;stroke-opacity:1"
       id="path5646-2"
       sodipodi:type="arc"
       sodipodi:cx="105.94738"
       sodipodi:cy="139.29475"
       sodipodi:rx="3.6473684"
       sodipodi:ry="3.4736841"
       sodipodi:start="6.2033291"
       sodipodi:end="6.1927051"
       sodipodi:open="true"
       sodipodi:arc-type="arc"
       d="m 109.58313,139.01765 a 3.6473684,3.4736841 0 0 1 -3.33514,3.73897 3.6473684,3.4736841 0 0 1 -3.93476,-3.16638 3.6473684,3.4736841 0 0 1 3.31423,-3.75578 3.6473684,3.4736841 0 0 1 3.95237,3.14642" />
    <path
       style="fill:#b03131;fill-opacity:1;stroke:#000000;stroke-width:0.264999;stroke-dasharray:none;stroke-opacity:1"
       id="path5646-87"
       sodipodi:type="arc"
       sodipodi:cx="99.000015"
       sodipodi:cy="155.62106"
       sodipodi:rx="3.6473684"
       sodipodi:ry="3.4736841"
       sodipodi:start="6.2033291"
       sodipodi:end="6.1927051"
       sodipodi:open="true"
       sodipodi:arc-type="arc"
       d="m 102.63576,155.34396 a 3.6473684,3.4736841 0 0 1 -3.335134,3.73897 3.6473684,3.4736841 0 0 1 -3.934759,-3.16638 3.6473684,3.4736841 0 0 1 3.314233,-3.75578 3.6473684,3.4736841 0 0 1 3.95236,3.14642" />
    <path
       style="fill:#b03131;fill-opacity:1;stroke:#000000;stroke-width:0.264999;stroke-dasharray:none;stroke-opacity:1"
       id="path5646-1"
       sodipodi:type="arc"
       sodipodi:cx="103.16843"
       sodipodi:cy="146.93684"
       sodipodi:rx="3.6473684"
       sodipodi:ry="3.4736841"
       sodipodi:start="6.2033291"
       sodipodi:end="6.1927051"
       sodipodi:open="true"
       sodipodi:arc-type="arc"
       d="m 106.80417,146.65974 a 3.6473684,3.4736841 0 0 1 -3.33513,3.73897 3.6473684,3.4736841 0 0 1 -3.934762,-3.16638 3.6473684,3.4736841 0 0 1 3.314232,-3.75578 3.6473684,3.4736841 0 0 1 3.95237,3.14642" />
    <path
       style="fill:#b03131;fill-opacity:1;stroke:#000000;stroke-width:0.264999;stroke-dasharray:none;stroke-opacity:1"
       id="path5646-08"
       sodipodi:type="arc"
       sodipodi:cx="79.547379"
       sodipodi:cy="127.48422"
       sodipodi:rx="3.6473684"
       sodipodi:ry="3.4736841"
       sodipodi:start="6.2033291"
       sodipodi:end="6.1927051"
       sodipodi:open="true"
       sodipodi:arc-type="arc"
       d="m 83.183123,127.20712 a 3.6473684,3.4736841 0 0 1 -3.335133,3.73897 3.6473684,3.4736841 0 0 1 -3.93476,-3.16638 3.6473684,3.4736841 0 0 1 3.314233,-3.75578 3.6473684,3.4736841 0 0 1 3.952364,3.14642" />
    <path
       style="fill:#b03131;fill-opacity:1;stroke:#000000;stroke-width:0.264999;stroke-dasharray:none;stroke-opacity:1"
       id="path5646-58"
       sodipodi:type="arc"
       sodipodi:cx="83.021065"
       sodipodi:cy="121.92632"
       sodipodi:rx="3.6473684"
       sodipodi:ry="3.4736841"
       sodipodi:start="6.2033291"
       sodipodi:end="6.1927051"
       sodipodi:open="true"
       sodipodi:arc-type="arc"
       d="m 86.65681,121.64922 a 3.6473684,3.4736841 0 0 1 -3.335134,3.73897 3.6473684,3.4736841 0 0 1 -3.934759,-3.16638 3.6473684,3.4736841 0 0 1 3.314232,-3.75578 3.6473684,3.4736841 0 0 1 3.952364,3.14642" />
    <path
       style="fill:#b03131;fill-opacity:1;stroke:#000000;stroke-width:0.264999;stroke-dasharray:none;stroke-opacity:1"
       id="path5646-7"
       sodipodi:type="arc"
       sodipodi:cx="83.021065"
       sodipodi:cy="132.00002"
       sodipodi:rx="3.6473684"
       sodipodi:ry="3.4736841"
       sodipodi:start="6.2033291"
       sodipodi:end="6.1927051"
       sodipodi:open="true"
       sodipodi:arc-type="arc"
       d="m 86.65681,131.72291 a 3.6473684,3.4736841 0 0 1 -3.335134,3.73897 3.6473684,3.4736841 0 0 1 -3.934759,-3.16637 3.6473684,3.4736841 0 0 1 3.314232,-3.75579 3.6473684,3.4736841 0 0 1 3.952364,3.14642" />
    <path
       style="fill:#b03131;fill-opacity:1;stroke:#000000;stroke-width:0.264999;stroke-dasharray:none;stroke-opacity:1"
       id="path5646-39"
       sodipodi:type="arc"
       sodipodi:cx="89.273697"
       sodipodi:cy="135.12633"
       sodipodi:rx="3.6473684"
       sodipodi:ry="3.4736841"
       sodipodi:start="6.2033291"
       sodipodi:end="6.1927051"
       sodipodi:open="true"
       sodipodi:arc-type="arc"
       d="m 92.909442,134.84923 a 3.6473684,3.4736841 0 0 1 -3.335134,3.73896 3.6473684,3.4736841 0 0 1 -3.934759,-3.16637 3.6473684,3.4736841 0 0 1 3.314232,-3.75579 3.6473684,3.4736841 0 0 1 3.952365,3.14643" />
    <path
       style="fill:#b03131;fill-opacity:1;stroke:#000000;stroke-width:0.264999;stroke-dasharray:none;stroke-opacity:1"
       id="path5646-8"
       sodipodi:type="arc"
       sodipodi:cx="93.094749"
       sodipodi:cy="147.28421"
       sodipodi:rx="3.6473684"
       sodipodi:ry="3.4736841"
       sodipodi:start="6.2033291"
       sodipodi:end="6.1927051"
       sodipodi:open="true"
       sodipodi:arc-type="arc"
       d="m 96.730494,147.00711 a 3.6473684,3.4736841 0 0 1 -3.335134,3.73897 3.6473684,3.4736841 0 0 1 -3.934759,-3.16638 3.6473684,3.4736841 0 0 1 3.314233,-3.75579 3.6473684,3.4736841 0 0 1 3.952364,3.14643" />
    <path
       style="fill:#b03131;fill-opacity:1;stroke:#000000;stroke-width:0.264999;stroke-dasharray:none;stroke-opacity:1"
       id="path5646-0"
       sodipodi:type="arc"
       sodipodi:cx="102.82106"
       sodipodi:cy="142.76842"
       sodipodi:rx="3.6473684"
       sodipodi:ry="3.4736841"
       sodipodi:start="6.2033291"
       sodipodi:end="6.1927051"
       sodipodi:open="true"
       sodipodi:arc-type="arc"
       d="m 106.45681,142.49132 a 3.6473684,3.4736841 0 0 1 -3.33514,3.73896 3.6473684,3.4736841 0 0 1 -3.934758,-3.16637 3.6473684,3.4736841 0 0 1 3.314228,-3.75579 3.6473684,3.4736841 0 0 1 3.95237,3.14643" />
    <path
       style="fill:#b03131;fill-opacity:1;stroke:#000000;stroke-width:0.264999;stroke-dasharray:none;stroke-opacity:1"
       id="path5646-37"
       sodipodi:type="arc"
       sodipodi:cx="99.694748"
       sodipodi:cy="151.8"
       sodipodi:rx="3.6473684"
       sodipodi:ry="3.4736841"
       sodipodi:start="6.2033291"
       sodipodi:end="6.1927051"
       sodipodi:open="true"
       sodipodi:arc-type="arc"
       d="m 103.33049,151.5229 a 3.6473684,3.4736841 0 0 1 -3.335131,3.73897 3.6473684,3.4736841 0 0 1 -3.934759,-3.16638 3.6473684,3.4736841 0 0 1 3.314232,-3.75578 3.6473684,3.4736841 0 0 1 3.952368,3.14642" />
    <path
       style="fill:#b03131;fill-opacity:1;stroke:#000000;stroke-width:0.264999;stroke-dasharray:none;stroke-opacity:1"
       id="path5646-5"
       sodipodi:type="arc"
       sodipodi:cx="93.442116"
       sodipodi:cy="153.53685"
       sodipodi:rx="3.6473684"
       sodipodi:ry="3.4736841"
       sodipodi:start="6.2033291"
       sodipodi:end="6.1927051"
       sodipodi:open="true"
       sodipodi:arc-type="arc"
       d="m 97.077861,153.25975 a 3.6473684,3.4736841 0 0 1 -3.335134,3.73897 3.6473684,3.4736841 0 0 1 -3.934759,-3.16638 3.6473684,3.4736841 0 0 1 3.314232,-3.75579 3.6473684,3.4736841 0 0 1 3.952365,3.14643" />
  </g>
  <g
     inkscape:groupmode="layer"
     id="layer3"
     inkscape:label="text"
     transform="translate(-21.274304,-53.854689)">
    <path
       id="path4439"
       style="font-size:35.2777px;font-family:'Showcard Gothic';-inkscape-font-specification:'Showcard Gothic';white-space:pre;inline-size:84.0601;opacity:1;fill:#7eb3e2;fill-opacity:1;stroke:#000000;stroke-width:0.265"
       d="m 123.54552,17.9325 c -3.83233,-0.793627 -7.18195,-0.610414 -9.7211,0.288537 -0.22677,0.08209 -0.44689,0.169846 -0.6603,0.26304 -3.0415,1.330256 -4.28148,3.551383 -4.16758,6.292117 0.11053,2.659711 1.5687,4.843108 3.85153,6.863669 0.0975,0.08662 0.19434,0.173548 0.29058,0.260791 1.07349,0.969315 2.0737,1.971952 3.00748,3.000746 0.60644,0.828374 0.81085,1.715339 0.67113,2.643869 -0.19463,1.293534 -1.08653,1.77602 -2.62275,1.646879 -0.2876,-0.02418 -0.7425,-0.138804 -1.40509,-0.32507 -0.20641,-0.06143 -0.67475,-0.203278 -0.88115,-0.264713 0.23246,1.06439 0.39586,1.947354 0.50212,2.586099 0.0775,0.575882 0.13924,1.082239 0.18729,1.503338 0.0532,0.452437 0.0927,0.825185 0.1194,1.097177 0.70117,0.296573 1.75318,0.487998 3.2622,0.726272 1.62757,0.256992 3.12243,0.0214 4.61664,-0.794122 1.55559,-0.838593 2.70948,-2.108372 3.29371,-3.939857 0.39954,-1.252477 0.38435,-2.798296 -0.18976,-4.599346 -0.5791,-1.816653 -0.87076,-2.952677 -0.7308,-3.500637 0.17602,-0.689127 0.616,-1.177885 1.34074,-1.44565 0.59912,-0.217763 1.20932,-0.234941 1.81478,-0.05096 0.48668,0.147889 1.18417,0.468192 2.05456,0.974536 0.98666,-3.472766 1.94023,-6.955471 2.85988,-10.447699 -2.5915,-1.380539 -5.13078,-2.289719 -7.49351,-2.779013 z M 69.850368,32.474932 c -2.793535,2.233171 -5.17185,4.647155 -7.152762,7.134256 4.360704,3.736826 7.808101,6.846943 10.173566,9.061732 3.088743,2.951353 6.162453,5.919877 9.220405,8.905643 1.473055,-0.935583 3.128932,-2.273843 5.424137,-4.103864 3.449137,-2.750079 5.516424,-5.421665 6.560522,-8.714554 0.57735,-1.798456 0.819745,-3.702372 0.643012,-5.710581 -0.139154,-1.525072 -0.51622,-3.133801 -1.197921,-4.784412 -0.713443,-1.727469 -1.604037,-3.180512 -2.746665,-4.330755 -1.666506,-1.68415 -3.845468,-2.697391 -6.549082,-2.896842 -4.238116,-0.305132 -9.392776,1.456382 -14.375212,5.439377 z M 90.129504,21.153968 c 3.638611,8.055544 7.054498,16.204446 10.242726,24.436871 2.46292,-0.853023 5.00559,-1.43284 7.53588,-1.695123 -0.39212,-5.179515 -0.63153,-9.357571 -0.76591,-12.358298 -0.17888,-4.690088 -0.27945,-9.384969 -0.30089,-14.082894 -5.75905,0.423086 -11.387803,1.684211 -16.711806,3.699444 z m 43.313696,0.366358 c -1.5183,5.657762 -2.96056,10.211474 -4.02277,13.25395 -1.35865,4.006507 -2.75214,8.000245 -4.17957,11.980763 0.9172,0.363754 1.83487,0.753923 2.75112,1.166597 1.77843,0.810902 3.53798,1.731768 5.28244,2.744911 1.47737,-2.446064 2.96025,-4.888945 4.44859,-7.328652 -0.0316,0.946328 -0.0918,1.674697 -0.1629,2.162401 -0.0961,0.765167 -0.19958,1.528078 -0.31022,2.288748 0.36697,-0.0019 0.96505,0.06048 1.78148,0.202928 0.68291,0.126532 1.14967,0.230049 1.36037,0.289004 -1.00641,1.647859 -2.0163,3.293609 -3.02963,4.937255 2.37372,1.580524 4.72444,3.309787 7.062,5.141547 3.66998,-4.256472 6.17278,-7.142477 8.27362,-9.605457 4.22258,-4.731167 7.4076,-8.184996 9.33506,-10.201719 -3.54487,-2.884248 -7.31115,-5.655447 -11.31938,-8.217414 -2.60972,4.751056 -5.26754,9.474751 -7.97116,14.171527 -0.81001,-0.435943 -1.43507,-0.777809 -1.89895,-1.054115 -0.72499,-0.412559 -1.45444,-0.882592 -2.19623,-1.408979 2.98738,-4.540814 6.02292,-9.052524 9.10468,-13.535581 -2.75877,-1.640961 -5.62789,-3.177989 -8.61349,-4.582351 -1.84417,-0.874197 -3.7442,-1.679437 -5.69506,-2.405363 z M 80.4971,38.683103 c 1.215435,-0.878708 2.430145,-1.309676 3.584635,-1.303015 1.483303,0.011 2.638855,0.782205 3.498267,2.231428 1.055573,1.780004 1.32627,3.452536 0.921989,4.967577 -0.316838,1.224944 -1.019093,2.26718 -2.132785,3.195343 -2.049878,-2.962386 -4.088272,-5.932405 -6.115016,-8.910069 0.0809,-0.0625 0.161942,-0.122741 0.242882,-0.181303 9e-6,1.3e-5 1.8e-5,2.6e-5 2.8e-5,3.9e-5 z"
       transform="matrix(1.1310299,0,0,1.074452,-29.904473,35.269826)"
       inkscape:path-effect="#path-effect8233"
       inkscape:original-d="m 120.28625,35.014437 c -2.99722,0 -5.39731,0.620109 -7.20024,1.860339 -2.06705,1.423968 -3.1005,3.519508 -3.1005,6.287059 0,2.652714 1.09087,4.944097 3.27275,6.873344 1.1254,0.999075 2.25062,1.992414 3.37601,2.980005 0.68902,0.746435 1.03351,1.590097 1.03351,2.531753 0,1.297648 -0.85534,1.946911 -2.5664,1.946911 -0.43638,0 -1.28628,-0.155027 -2.54948,-0.465085 0.28709,1.067976 0.51133,1.9233 0.67209,2.566382 0.25264,1.194296 0.43031,2.055451 0.53366,2.583697 0.89573,0.264124 2.28542,0.396308 4.16873,0.396308 2.04408,0 3.76063,-0.591435 5.15014,-1.774248 1.45843,-1.228746 2.18763,-2.801859 2.18763,-4.719623 0,-1.320615 -0.49367,-2.767855 -1.48126,-4.34111 -0.9876,-1.573256 -1.48126,-2.635121 -1.48126,-3.186335 0,-0.711984 0.26988,-1.292238 0.80962,-1.740099 0.44786,-0.367476 0.94153,-0.551176 1.48126,-0.551176 0.43638,0 1.07969,0.09768 1.92947,0.292903 L 126.00523,35.75511 c -2.11298,-0.493795 -4.0194,-0.740673 -5.71898,-0.740673 z m -40.566067,0.240959 c -2.710132,0 -5.310944,0.178351 -7.802889,0.534343 0.390443,5.776258 0.660335,10.306546 0.809622,13.590859 l 0.465121,12.798244 c 1.688091,0.310058 4.082304,0.465084 7.18288,0.465084 4.823118,0 8.560911,-1.234385 11.213626,-3.703362 2.57233,-2.377108 3.858497,-5.638507 3.858497,-9.784091 0,-4.60493 -1.458409,-8.113206 -4.375247,-10.524764 -2.7331,-2.250789 -6.517008,-3.376313 -11.35161,-3.376313 z m 17.035867,0.465085 1.171484,26.458361 h 9.663376 c 0.17226,-5.225044 0.32189,-9.353428 0.44821,-12.385103 l 0.67164,-14.073258 z m 31.10921,0 c 0.41341,5.902577 0.672,10.501873 0.77536,13.797671 l 0.49939,12.66069 h 9.69809 l 0.17225,-8.578334 c 0.4249,0.838303 0.72915,1.487084 0.91288,1.946429 l 0.89552,2.119093 c 0.31006,-0.195222 0.83854,-0.45376 1.58498,-0.775301 0.6316,-0.264123 1.05068,-0.430812 1.25738,-0.499714 l 0.18961,5.787827 h 8.78476 c 0.22968,-5.408782 0.39062,-9.629016 0.48249,-12.66069 0.32154,-6.373407 0.57967,-10.972703 0.77489,-13.797671 h -11.21362 l 0.87861,16.226499 c -0.8383,0.08039 -1.50421,0.126555 -1.99801,0.138035 -0.7694,0.03445 -1.57365,0.01113 -2.41196,-0.06926 L 139.9575,35.720481 Z M 83.530705,46.617986 c 1.294599,-0.01144 2.366965,0.294685 3.21747,0.919107 1.090944,0.803853 1.636606,2.0499 1.636606,3.737991 0,2.078534 -0.585898,3.652128 -1.757227,4.720104 -0.930172,0.861271 -2.129989,1.337534 -3.599892,1.429402 l 0.241241,-10.800352 c 0.08828,-0.0036 0.175496,-0.0055 0.261802,-0.0063 z"
       class="UnoptimicedTransforms" />
    <path
       id="path4604"
       style="font-size:35.2777px;font-family:'Showcard Gothic';-inkscape-font-specification:'Showcard Gothic';opacity:1;fill:#89b9e7;fill-opacity:1;stroke:#000000;stroke-width:0.265"
       d="m 176.66034,191.64531 c -1.54632,3.32075 -2.33608,6.15045 -2.32146,8.68555 0.0185,2.9034 1.11541,5.09949 3.47888,6.54937 2.25676,1.38443 4.97971,1.39714 8.14664,-0.2837 1.63173,-0.86221 3.25254,-1.77706 4.85781,-2.7401 1.10912,-0.52464 2.08548,-0.59245 2.93372,-0.17179 1.15889,0.57472 1.2191,1.98567 0.0367,4.20098 -0.29448,0.5517 -1.03254,1.59825 -2.21343,3.03524 1.16513,0.1712 2.02478,0.29499 2.73128,0.40573 1.27314,0.2667 2.07601,0.43018 2.65901,0.55848 0.88618,-1.0529 2.02924,-2.86681 3.28408,-5.41447 1.3668,-2.77495 1.87287,-5.39238 1.5841,-7.74937 -0.29201,-2.47421 -1.38327,-4.04102 -3.15774,-4.75905 -1.22903,-0.49731 -2.82537,-0.38237 -4.81163,0.2723 -1.98047,0.65277 -3.23924,0.83174 -3.74007,0.61247 -0.65478,-0.28668 -1.03943,-0.85566 -1.16588,-1.69814 -0.10119,-0.69803 -0.014,-1.37639 0.26219,-2.0434 0.22437,-0.54178 0.6393,-1.29557 1.23957,-2.28523 -3.43744,-1.09763 -6.87118,-2.21174 -10.3008,-3.34247 -1.45549,2.24739 -2.62472,4.28164 -3.50293,6.1676 z m -46.49152,40.07421 c -0.66053,0.0252 -1.33884,0.0404 -2.03143,0.0406 -1.95443,0.10307 -4.09233,0.0953 -6.43903,-0.0956 -0.59907,4.88763 -1.00945,9.0505 -1.60852,13.93814 -0.62524,5.62848 -0.97856,9.87582 -1.13836,12.30007 2.95434,0.45447 5.96251,0.71966 9.0109,0.77998 2.53982,-0.0169 5.05394,-0.17779 7.53403,-0.47398 -0.13472,-1.99861 -0.27872,-3.99621 -0.43195,-5.99278 0.0176,-0.002 0.0352,-0.004 0.0529,-0.007 1.79178,1.82959 3.34124,3.09248 4.32969,3.7712 2.12463,1.31298 3.73385,2.09719 4.33061,2.33941 1.76811,-1.00238 3.58311,-2.11156 5.42382,-3.34729 2.38302,-1.55342 4.45316,-3.1318 4.92896,-3.47769 -2.47504,-0.26826 -4.34642,-0.67491 -5.53952,-1.04144 -2.41918,-0.8558 -3.99847,-1.61748 -4.56407,-1.94481 2.0678,-1.24246 3.52598,-2.86206 4.3674,-4.72437 0.9491,-2.13379 0.87535,-4.17388 0.0176,-6.10129 -1.41329,-3.17565 -3.83995,-4.9017 -6.84612,-5.65114 -3.21185,-0.80071 -6.58222,-0.49633 -11.39688,-0.3125 1e-5,0 2e-5,0 3e-5,0 z M 80.236387,193.77563 c -1.46877,-2.97463 -2.907516,-5.7752 -4.421379,-8.51309 -5.307881,2.64623 -9.118999,4.56438 -12.21223,6.05332 -3.87393,1.80594 -7.74193,3.62995 -11.603603,5.47216 0.643289,2.40684 1.925059,5.8637 4.014554,10.02935 3.288725,6.55645 7.502859,10.80017 11.783675,12.65547 4.178705,1.82694 7.877745,1.21878 11.147424,-1.29877 3.632199,-2.79667 5.220157,-6.46691 5.236623,-10.72349 0.0083,-4.04011 -1.34512,-8.40939 -3.945064,-13.67495 z m 10.263473,17.41952 c -6.5834,5.85294 -13.065051,11.81934 -19.439762,17.9007 3.207513,3.84003 6.713847,7.4868 10.537127,10.88192 3.505941,-3.60467 6.63449,-6.85812 8.607721,-8.90008 3.290602,-3.34921 6.542115,-6.73848 9.753642,-10.16814 -3.450451,-2.82386 -6.591925,-6.09883 -9.458728,-9.7144 z m 14.91558,13.68923 c -2.70199,2.925 -5.805982,5.86879 -9.379601,8.68472 -5.23484,3.91949 -9.716242,6.51816 -12.332767,7.8949 -0.08177,0.0436 -0.162181,0.0864 -0.241219,0.12811 0.0266,0.0225 0.05321,0.0449 0.07983,0.0673 2.041589,1.71615 4.182957,3.32915 6.413125,4.82644 1.038851,-0.64148 2.063173,-1.29918 3.07223,-1.97259 0.07631,0.89436 0.15902,1.72012 0.203624,2.1903 0.08144,0.86885 0.178385,1.74055 0.291224,2.6146 1.551944,0.0654 2.894943,0.14174 4.077157,0.26178 1.795251,0.26017 2.900843,0.38277 3.327973,0.46753 -0.0176,0.83535 -0.0242,1.67286 -0.0195,2.51233 4.73754,2.11945 9.7374,3.74504 14.92293,4.78893 -1.14528,-6.01904 -1.4524,-11.09032 -1.5082,-14.57577 -0.006,-6.52278 0.66975,-11.42967 0.91309,-12.91965 -3.37125,-1.25008 -6.67843,-2.94522 -9.81989,-4.96893 z m 39.92013,3.29547 c 4.1451,7.80625 8.50268,15.5128 13.06438,23.11201 4.76176,-2.38328 9.22846,-5.28051 13.31192,-8.59892 -2.96938,-4.1449 -5.56876,-7.71352 -7.27057,-10.05927 -1.1319,-1.58774 -2.2725,-3.16817 -3.4217,-4.7412 -1.62084,-2.22168 -3.25647,-4.43009 -4.90671,-6.6253 -0.1133,0.0921 -0.22694,0.18371 -0.34093,0.2748 -3.23756,2.60516 -6.76669,4.87073 -10.43639,6.63788 z m 25.28793,-23.8358 c -3.8121,6.07212 -8.19902,11.50766 -13.3023,15.91153 4.13226,4.05334 6.90929,6.71699 9.23225,9.08616 3.17854,3.17919 6.38468,6.32964 9.61794,9.45152 5.96031,-5.55146 11.10086,-11.72262 15.50904,-18.26949 -0.71089,-0.90866 -1.24914,-1.59303 -1.72136,-2.20219 -0.53797,-0.7259 -1.09979,-1.46201 -1.63776,-2.18791 -0.58893,1.35192 -1.07972,2.31665 -1.41164,2.85825 -1.77925,2.8199 -3.25285,4.8262 -3.99473,5.77886 -0.94909,-0.85742 -1.90039,-1.71239 -2.85389,-2.5649 1.06394,-1.3701 1.84717,-2.41731 2.39346,-3.11232 1.25325,-1.5074 1.92166,-2.35032 2.29447,-2.74225 -0.66187,-0.66116 -1.2231,-1.27956 -1.68291,-1.85314 -0.76065,-0.96905 -1.26303,-1.61546 -1.53111,-2.00016 -2.02563,3.27766 -3.76504,5.61106 -4.81891,6.90407 -0.78909,-0.76603 -1.58105,-1.52899 -2.37585,-2.28889 0.95244,-1.1924 1.79355,-2.24954 2.61325,-3.25273 1.21291,-1.42501 1.97722,-2.3845 2.34245,-2.82038 -2.86907,-2.25981 -5.76016,-4.49172 -8.6724,-6.69603 z m -35.88294,38.27498 c 1.08944,-0.14802 2.0259,-0.16342 2.83986,-0.0183 1.25412,0.22711 2.03084,0.83119 2.27992,1.89195 0.24719,1.05269 -0.21908,2.01945 -1.49551,2.82893 -0.95915,0.61735 -2.13647,1.03134 -3.49841,1.2038 -0.19516,-1.94555 -0.3957,-3.89042 -0.60162,-5.83462 0.16172,-0.0268 0.32021,-0.051 0.47579,-0.0715 z M 72.35299,203.34289 c 0.839855,1.51293 1.290571,2.89908 1.340239,4.20316 0.06116,1.67293 -0.592126,2.96637 -2.024773,3.86436 -1.762943,1.10502 -3.541109,1.25121 -5.339729,0.34 -1.433431,-0.7137 -2.736579,-1.99998 -3.841361,-3.84759 3.235813,-1.61247 6.466836,-3.23378 9.692982,-4.86396 0.05983,0.10185 0.116247,0.20335 0.172466,0.30413 z m 28.64636,36.10074 c 0.0869,1.57901 0.17717,2.81096 0.21253,3.68547 0.006,1.54679 0.0361,2.6644 0.0339,3.34222 -1.290577,-0.35005 -2.457681,-0.76469 -3.49208,-1.22228 -1.663076,-0.7714 -2.783977,-1.39027 -3.198582,-1.64985 1.363591,-0.94012 2.425589,-1.66643 3.272535,-2.1944 1.39229,-0.83324 2.615057,-1.61346 3.171747,-1.96116 z"
       transform="translate(-30.568421,-49.673682)"
       inkscape:path-effect="#path-effect8236"
       inkscape:original-d="m 188.65386,175.00402 c -2.99721,0 -5.39714,0.62012 -7.20008,1.86035 -2.06705,1.42396 -3.10058,3.5194 -3.10058,6.28695 0,2.65272 1.09078,4.94372 3.27267,6.87297 1.12539,0.99908 2.25063,1.99259 3.37602,2.98018 0.68902,0.74644 1.03353,1.59049 1.03353,2.53214 0,1.29766 -0.8552,1.94665 -2.56625,1.94665 -0.43638,0 -1.28652,-0.15502 -2.54972,-0.46508 0.28709,1.06798 0.51103,1.92317 0.67179,2.56625 0.25264,1.1943 0.43099,2.05557 0.53434,2.58382 0.89572,0.26412 2.28491,0.39636 4.16822,0.39636 2.04408,0 3.76107,-0.59124 5.15059,-1.77405 1.45842,-1.22875 2.18746,-2.80236 2.18746,-4.72013 0,-1.32061 -0.49345,-2.76756 -1.48104,-4.34082 -0.9876,-1.57325 -1.48157,-2.63515 -1.48157,-3.18637 0,-0.71198 0.27004,-1.29208 0.80977,-1.73994 0.44786,-0.36748 0.94132,-0.55139 1.48105,-0.55139 0.43638,0 1.07981,0.0978 1.9296,0.293 l -0.51677,-10.80037 c -2.11298,-0.49379 -4.01945,-0.74052 -5.71903,-0.74052 z m -58.60107,0.2067 c -2.60678,0 -5.48902,0.16617 -8.64702,0.4992 0.36748,5.99444 0.60306,10.68589 0.70642,14.07356 0.22967,5.75328 0.40749,9.88134 0.53381,12.38477 h 9.69812 l 0.17208,-6.02857 h 0.0346 c 1.02204,2.06705 1.79719,3.53679 2.32544,4.40955 1.14835,1.72254 1.88906,2.79052 2.22208,3.20394 1.13688,-0.5627 2.34824,-1.13671 3.63441,-1.72238 1.83737,-0.79237 3.02594,-1.28634 3.56567,-1.48156 -1.34358,-1.24023 -2.34267,-2.23932 -2.99723,-2.99724 -1.30914,-1.65363 -2.13039,-2.73884 -2.46342,-3.25561 1.57325,-0.62011 2.8824,-1.64199 3.92741,-3.06596 1.18281,-1.63068 1.77457,-3.5027 1.77457,-5.61568 0,-6.93611 -4.82925,-10.40402 -14.48697,-10.40402 z m -60.753917,0.0341 c -2.710132,0 -5.311196,0.17835 -7.803141,0.53433 0.390443,5.77626 0.660483,10.30659 0.80977,13.5909 l 0.465088,12.79819 c 1.688091,0.31005 4.082448,0.46509 7.183024,0.46509 4.823118,0 8.56107,-1.23416 11.213786,-3.70314 2.572329,-2.3771 3.858162,-5.63882 3.858162,-9.78441 0,-4.60493 -1.458088,-8.11287 -4.374927,-10.52442 -2.7331,-2.25079 -6.51716,-3.37654 -11.351762,-3.37654 z m 17.03617,0.46509 1.170988,26.45833 h 9.663493 c 0.172254,-5.22505 0.321714,-9.3531 0.448034,-12.38477 l 0.671794,-14.07356 z m 18.155477,0 c -0.6316,3.91591 -1.41841,8.05614 -2.36006,12.41991 -1.5388,6.52269 -2.675692,11.20196 -3.410643,14.03842 h 4.995563 l 0.93017,-3.32435 c 0.36748,0.74644 0.64866,1.32654 0.84388,1.73995 l 0.98185,2.08411 c 0.82682,-0.72346 1.57918,-1.30356 2.25671,-1.73994 1.05649,-0.59715 1.71663,-0.94723 1.98076,-1.05059 l 0.63717,2.29082 h 9.42268 c -1.401,-5.79923 -2.49787,-10.42125 -3.29024,-13.86634 -1.43545,-6.59159 -2.31396,-10.78906 -2.6355,-12.59199 z m 41.04814,0 1.17151,26.45833 h 9.66349 c 0.17226,-5.22505 0.3212,-9.3531 0.44752,-12.38477 l 0.67179,-14.07356 z m 31.47095,0 -18.1038,5.1e-4 c 0.35599,5.54659 0.57992,9.86413 0.67179,12.95322 l 0.4992,13.50512 h 15.41663 c 0.22966,-1.06798 0.42523,-1.95257 0.58601,-2.65307 0.33302,-1.35507 0.5453,-2.21026 0.63717,-2.56625 -0.99908,0.24114 -1.71698,0.37894 -2.15336,0.41341 -2.30821,0.13782 -3.89296,0.21229 -4.75423,0.22376 l 0.1726,-3.84111 c 1.21726,-0.0115 2.13578,-3.6e-4 2.7559,0.0341 1.3321,0.12632 2.1645,0.22968 2.49752,0.31006 0.12632,-0.91869 0.27021,-1.72829 0.43098,-2.42879 0.27561,-1.15984 0.47623,-1.95222 0.60255,-2.37711 -2.85942,0.0919 -4.9204,0.12076 -6.1836,0.0863 l 0.25838,-3.29023 c 1.14836,0.023 2.20469,0.0802 3.16932,0.17208 1.41248,0.17225 2.33101,0.29283 2.7559,0.36173 z m -43.8428,10.82673 c 0.8566,0.003 1.5817,0.15486 2.17454,0.4563 0.9187,0.47083 1.3777,1.25155 1.3777,2.34249 0,1.09095 -0.49346,1.9122 -1.48105,2.46342 -0.74643,0.42489 -1.59658,0.63717 -2.54971,0.63717 l 0.10335,-5.89112 c 0.12775,-0.006 0.2528,-0.009 0.37517,-0.008 z m -60.057833,0.0708 c 1.294598,-0.0114 2.367386,0.29491 3.217891,0.91933 1.090944,0.80385 1.636593,2.04966 1.636593,3.73775 0,2.07854 -0.58567,3.65216 -1.756999,4.72013 -0.930172,0.86127 -2.130394,1.33749 -3.600297,1.42937 l 0.241329,-10.80038 c 0.08828,-0.004 0.175176,-0.005 0.261483,-0.006 z m 34.395833,3.81321 c 0.60863,1.3321 1.06206,2.37729 1.36064,3.13521 0.49379,1.36654 0.83831,2.35397 1.03353,2.96261 -0.86127,0.25264 -1.65922,0.43046 -2.39417,0.53381 -1.21727,0.13781 -1.99799,0.20671 -2.34249,0.20671 0.42489,-1.50436 0.7922,-2.69292 1.10226,-3.56568 0.5627,-1.51583 0.9761,-2.60662 1.24023,-3.27266 z"
       class="UnoptimicedTransforms" />
  </g>
</svg>
